<svg width="21" height="21" viewBox="0 0 21 21" fill="none" xmlns="http://www.w3.org/2000/svg">
<g clip-path="url(#clip0_317_1374)">
<path d="M1.63683 2.24276C5.13752 2.23353 8.63953 2.23353 12.1402 2.24276C12.9469 2.23485 13.7759 2.60917 14.2003 3.31432C14.717 4.06428 14.713 5.09762 14.2306 5.86339C12.6503 8.66684 11.0107 11.4387 9.41849 14.2355C9.00331 14.8959 9.01122 15.8343 9.54765 16.4235C10.1566 17.1484 11.3626 17.2696 12.0888 16.6528C12.5251 16.2679 12.7808 15.7328 13.0892 15.2491C13.5479 14.5281 13.9644 13.7808 14.4441 13.0743C14.4626 11.9659 14.5166 10.8574 14.6656 9.75817C14.7657 9.03985 14.8422 8.28989 15.206 7.64537C15.2877 7.63878 15.4498 7.6256 15.5302 7.61901C16.2564 8.00915 16.5543 8.85269 16.7046 9.61319C17.4954 9.30082 18.4734 9.22833 19.193 9.75422C19.9878 10.3131 20.3015 11.299 20.461 12.2137C20.5176 12.555 20.5848 12.9979 20.2791 13.2457C19.5779 13.7057 18.7633 13.9535 17.9554 14.1525C18.1873 15.7104 18.7528 17.2024 19.4566 18.6061C19.5423 18.792 19.6016 18.9883 19.6635 19.1834C19.5159 19.3324 19.3762 19.5314 19.135 19.4839C13.7719 19.4892 8.40887 19.4852 3.0458 19.4866C2.4092 19.4945 1.74095 19.3086 1.28755 18.8394C0.479598 18.1316 0.341205 16.861 0.867099 15.9463C2.24971 13.5277 3.66001 11.125 5.05712 8.71429C5.37872 8.11854 5.81894 7.5162 5.76886 6.80447C5.78731 5.86471 5.16652 4.96054 4.29793 4.6139C3.30941 4.20135 2.31298 3.80858 1.32709 3.39077C1.02395 3.27214 0.971224 2.92945 0.968588 2.64476C1.15311 2.45496 1.33632 2.20322 1.63683 2.24276ZM17.5507 11.6851C17.5349 11.8433 17.531 12.0028 17.5376 12.1623C17.7221 12.3376 17.9396 12.5458 18.219 12.4351C18.6263 12.3837 18.7238 11.8275 18.4681 11.5547C18.2348 11.241 17.7155 11.3596 17.5507 11.6851Z" fill="#FF0000"/>
</g>
<defs>
<clipPath id="clip0_317_1374">
<rect width="19.9544" height="19.9544" fill="white" transform="translate(0.555176 0.98877)"/>
</clipPath>
</defs>
</svg>
