<svg width="107" height="35" viewBox="0 0 107 35" fill="none" xmlns="http://www.w3.org/2000/svg">
<path d="M1.91181 0.0122304C8.09922 -0.0040768 14.289 -0.0040768 20.4764 0.0122304C21.9021 -0.0017472 23.3674 0.65986 24.1175 1.9062C25.0307 3.23174 25.0238 5.05814 24.1711 6.41164C21.3779 11.3667 18.4799 16.2658 15.6658 21.2092C14.9319 22.3764 14.9459 24.0351 15.8941 25.0764C16.9703 26.3577 19.1019 26.572 20.3855 25.4817C21.1566 24.8015 21.6086 23.8557 22.1537 23.0007C22.9644 21.7264 23.7005 20.4055 24.5485 19.1569C24.5811 17.1977 24.6766 15.2385 24.9399 13.2956C25.1169 12.026 25.2521 10.7004 25.895 9.56126C26.0395 9.54961 26.326 9.52631 26.4681 9.51467C27.7517 10.2042 28.2782 11.6952 28.5438 13.0393C29.9415 12.4872 31.6701 12.3591 32.9421 13.2886C34.3468 14.2764 34.9012 16.0189 35.1831 17.6356C35.2833 18.239 35.4021 19.0218 34.8616 19.4597C33.6223 20.2727 32.1826 20.7107 30.7546 21.0625C31.1646 23.8161 32.164 26.4532 33.408 28.9342C33.5594 29.2627 33.6642 29.6098 33.7737 29.9546C33.5128 30.2178 33.2659 30.5696 32.8396 30.4857C23.3604 30.495 13.8813 30.488 4.40215 30.4904C3.27695 30.5043 2.09584 30.1759 1.29446 29.3465C-0.133582 28.0955 -0.37819 25.8498 0.55132 24.2331C2.99507 19.9583 5.48774 15.7114 7.95711 11.4506C8.52554 10.3976 9.30362 9.33296 9.2151 8.07497C9.24771 6.41397 8.15047 4.81586 6.61526 4.20318C4.86807 3.47402 3.10689 2.7798 1.36435 2.04131C0.828543 1.83165 0.735359 1.22595 0.7307 0.722759C1.05684 0.387296 1.38066 -0.0576576 1.91181 0.0122304ZM30.0394 16.7015C30.0114 16.981 30.0044 17.2629 30.0161 17.5448C30.3422 17.8546 30.7266 18.2227 31.2205 18.027C31.9403 17.9362 32.1127 16.9531 31.6608 16.4708C31.2484 15.9164 30.3306 16.1261 30.0394 16.7015Z" fill="#FF0000"/>
<path d="M86.7907 4.97682C88.8267 2.89649 92.1254 2.87087 94.7556 3.6373C94.7625 5.15853 94.7439 6.67976 94.7672 8.20099C93.67 7.93309 92.3188 7.777 91.4429 8.64827C90.758 9.15845 90.7813 10.0926 90.751 10.8614C92.8639 10.866 94.9745 10.8637 97.0875 10.8637C97.0852 9.60807 97.0875 8.35474 97.0852 7.10142C99.0513 6.43748 101.034 5.81315 102.995 5.13291C102.998 7.02454 103.005 8.9185 102.991 10.8125C104.323 10.7985 105.656 10.8101 106.988 10.8032C106.986 12.2335 106.988 13.6662 106.988 15.0966C105.66 15.1385 104.333 15.0989 103.005 15.1222C103.007 17.0348 102.965 18.9498 103.023 20.8624C103.026 21.6078 103.54 22.2811 104.204 22.5863C105.069 23.0289 106.075 22.8681 106.991 22.7097C106.988 24.1844 106.977 25.659 107 27.1336C104.971 27.8675 102.637 27.758 100.645 26.9426C98.6157 26.0876 97.4532 23.9444 97.2506 21.8245C97.0502 19.5951 97.1783 17.3517 97.1504 15.1152C95.0421 15.1152 92.9338 15.1152 90.8279 15.1152C90.8209 19.192 90.8279 23.2688 90.8232 27.3456C88.85 27.348 86.8745 27.3386 84.899 27.3503C84.934 23.2712 84.899 19.192 84.9177 15.1129C83.9159 15.1176 82.9119 15.1129 81.9102 15.1199C81.9195 13.6825 81.9078 12.2452 81.9195 10.8101C82.9095 10.8008 83.8996 10.8078 84.892 10.8008C84.927 8.73912 85.2694 6.50504 86.7907 4.97682Z" fill="#FF0000"/>
<path d="M47.2365 10.8076C52.0587 10.8029 56.881 10.8053 61.7056 10.8053C61.7056 12.0842 61.7056 13.3608 61.7033 14.6398C59.178 17.447 56.5665 20.1796 54.0692 23.0124C56.7342 22.9984 59.3993 23.0147 62.0644 23.003C62.0434 24.4521 62.0597 25.8987 62.0527 27.3478C57.0837 27.3431 52.1146 27.3454 47.1479 27.3454C47.1433 25.9779 47.1456 24.6105 47.1456 23.243C49.6546 20.515 52.2078 17.8337 54.7145 15.1057C52.2171 15.1313 49.7221 15.1057 47.2271 15.1174C47.2411 13.68 47.2271 12.2426 47.2365 10.8076Z" fill="#FF0000"/>
<path d="M62.1567 10.8073C64.1742 10.8003 66.1916 10.8119 68.2114 10.8003C69.5299 13.9872 70.7064 17.2346 71.99 20.4378C73.3039 17.2533 74.5595 14.0431 75.8734 10.8585C77.8163 10.8679 79.7592 10.8632 81.6997 10.8609C79.3096 16.2166 76.938 21.584 74.5572 26.9444C73.6207 29.104 72.4885 31.3124 70.5666 32.7591C68.9056 34.0567 66.8066 34.6298 64.7449 34.8767C64.2231 33.3788 63.862 31.8342 63.3262 30.3433C64.3046 30.1569 65.2831 29.9216 66.1986 29.5233C67.5428 28.8943 68.4327 27.599 68.9219 26.2362C66.6785 21.0901 64.3699 15.9673 62.1567 10.8073Z" fill="#FF0000"/>
</svg>
