<svg width="21" height="21" viewBox="0 0 21 21" fill="none" xmlns="http://www.w3.org/2000/svg">
<g clip-path="url(#clip0_317_713)">
<path d="M1.63683 2.21981C5.13752 2.21058 8.63953 2.21058 12.1402 2.21981C12.9469 2.2119 13.7759 2.58622 14.2003 3.29137C14.717 4.04133 14.713 5.07467 14.2306 5.84044C12.6503 8.64389 11.0107 11.4157 9.41849 14.2126C9.00331 14.8729 9.01122 15.8113 9.54765 16.4005C10.1566 17.1254 11.3626 17.2467 12.0888 16.6298C12.5251 16.245 12.7808 15.7099 13.0892 15.2261C13.5479 14.5052 13.9644 13.7579 14.4441 13.0514C14.4626 11.9429 14.5166 10.8345 14.6656 9.73523C14.7657 9.0169 14.8422 8.26694 15.206 7.62242C15.2877 7.61583 15.4498 7.60265 15.5302 7.59606C16.2564 7.9862 16.5543 8.82974 16.7046 9.59024C17.4954 9.27787 18.4734 9.20538 19.193 9.73127C19.9878 10.2901 20.3015 11.276 20.461 12.1907C20.5176 12.5321 20.5848 12.9749 20.2791 13.2227C19.5779 13.6827 18.7633 13.9305 17.9554 14.1295C18.1873 15.6875 18.7528 17.1795 19.4566 18.5832C19.5423 18.769 19.6016 18.9654 19.6635 19.1605C19.5159 19.3094 19.3762 19.5084 19.135 19.461C13.7719 19.4663 8.40887 19.4623 3.0458 19.4636C2.4092 19.4715 1.74095 19.2857 1.28755 18.8165C0.479598 18.1087 0.341205 16.8381 0.867099 15.9234C2.24971 13.5048 3.66001 11.102 5.05712 8.69134C5.37872 8.09559 5.81894 7.49325 5.76886 6.78152C5.78731 5.84176 5.16652 4.93759 4.29793 4.59095C3.30941 4.17841 2.31298 3.78563 1.32709 3.36782C1.02395 3.24919 0.971224 2.9065 0.968588 2.62181C1.15311 2.43201 1.33632 2.18027 1.63683 2.21981ZM17.5507 11.6622C17.5349 11.8203 17.531 11.9798 17.5376 12.1393C17.7221 12.3146 17.9396 12.5229 18.219 12.4121C18.6263 12.3607 18.7238 11.8045 18.4681 11.5317C18.2348 11.218 17.7155 11.3366 17.5507 11.6622Z" fill="#ABABAB"/>
</g>
<defs>
<clipPath id="clip0_317_713">
<rect width="19.9544" height="19.9544" fill="white" transform="translate(0.555176 0.96582)"/>
</clipPath>
</defs>
</svg>
