<svg width="21" height="21" viewBox="0 0 21 21" fill="none" xmlns="http://www.w3.org/2000/svg">
<g clip-path="url(#clip0_317_679)">
<g clip-path="url(#clip1_317_679)">
<path d="M20.4908 7.6512L19.3622 3.13403C19.2237 2.57905 18.7249 2.18994 18.1524 2.18994H2.91353C2.34109 2.18994 1.84223 2.57905 1.70255 3.13403L0.573883 7.6512C0.561412 7.69984 0.555176 7.75098 0.555176 7.80211C0.555176 9.52068 1.88339 10.92 3.51715 10.92C4.46623 10.92 5.31305 10.4473 5.85556 9.71399C6.39807 10.4473 7.24488 10.92 8.19396 10.92C9.14304 10.92 9.98985 10.4473 10.5324 9.71399C11.0749 10.4473 11.9204 10.92 12.8708 10.92C13.8211 10.92 14.6667 10.4473 15.2092 9.71399C15.7517 10.4473 16.5972 10.92 17.5476 10.92C19.1813 10.92 20.5095 9.52068 20.5095 7.80211C20.5095 7.75098 20.5033 7.69984 20.4908 7.6512Z" fill="#FF0000"/>
<path d="M17.5475 12.1674C16.6982 12.1674 15.8913 11.908 15.2091 11.4341C13.8447 12.3832 11.8967 12.3832 10.5323 11.4341C9.1679 12.3832 7.21986 12.3832 5.85548 11.4341C5.17329 11.908 4.36638 12.1674 3.51707 12.1674C2.90473 12.1674 2.3273 12.024 1.80225 11.7795V18.4031C1.80225 19.0916 2.36097 19.6503 3.04939 19.6503H8.03799V14.6617H13.0266V19.6503H18.0152C18.7036 19.6503 19.2623 19.0916 19.2623 18.4031V11.7795C18.7373 12.024 18.1598 12.1674 17.5475 12.1674Z" fill="#FF0000"/>
</g>
</g>
<defs>
<clipPath id="clip0_317_679">
<rect width="19.9544" height="19.9544" fill="white" transform="translate(0.555176 0.942871)"/>
</clipPath>
<clipPath id="clip1_317_679">
<rect width="19.9544" height="19.9544" fill="white" transform="translate(0.555176 0.942871)"/>
</clipPath>
</defs>
</svg>
