<svg width="21" height="21" viewBox="0 0 21 21" fill="none" xmlns="http://www.w3.org/2000/svg">
<g clip-path="url(#clip0_317_1346)">
<path d="M20.4908 7.67415L19.3622 3.15698C19.2237 2.602 18.7249 2.21289 18.1524 2.21289H2.91353C2.34109 2.21289 1.84223 2.602 1.70255 3.15698L0.573883 7.67415C0.561412 7.72279 0.555176 7.77392 0.555176 7.82506C0.555176 9.54363 1.88339 10.9429 3.51715 10.9429C4.46623 10.9429 5.31305 10.4703 5.85556 9.73694C6.39807 10.4703 7.24488 10.9429 8.19396 10.9429C9.14304 10.9429 9.98985 10.4703 10.5324 9.73694C11.0749 10.4703 11.9204 10.9429 12.8708 10.9429C13.8211 10.9429 14.6667 10.4703 15.2092 9.73694C15.7517 10.4703 16.5972 10.9429 17.5476 10.9429C19.1813 10.9429 20.5095 9.54363 20.5095 7.82506C20.5095 7.77392 20.5033 7.72279 20.4908 7.67415Z" fill="#ABABAB"/>
<path d="M17.5475 12.1904C16.6982 12.1904 15.8913 11.9309 15.2091 11.457C13.8447 12.4061 11.8967 12.4061 10.5323 11.457C9.1679 12.4061 7.21986 12.4061 5.85548 11.457C5.17329 11.9309 4.36638 12.1904 3.51707 12.1904C2.90473 12.1904 2.3273 12.0469 1.80225 11.8025V18.4261C1.80225 19.1145 2.36097 19.6732 3.04939 19.6732H8.03799V14.6847H13.0266V19.6732H18.0152C18.7036 19.6732 19.2623 19.1145 19.2623 18.4261V11.8025C18.7373 12.0469 18.1598 12.1904 17.5475 12.1904Z" fill="#ABABAB"/>
</g>
<defs>
<clipPath id="clip0_317_1346">
<rect width="19.9544" height="19.9544" fill="white" transform="translate(0.555176 0.96582)"/>
</clipPath>
</defs>
</svg>
