<svg width="21" height="21" viewBox="0 0 21 21" fill="none" xmlns="http://www.w3.org/2000/svg">
<g clip-path="url(#clip0_317_695)">
<g clip-path="url(#clip1_317_695)">
<path d="M18.8466 0.96582H11.9352C11.478 0.96582 10.839 1.23069 10.516 1.55349L1.04043 11.029C0.393425 11.6752 0.393425 12.7348 1.04043 13.3803L8.09573 20.4354C8.74127 21.0816 9.79983 21.0816 10.4463 20.4346L19.9219 10.9606C20.2446 10.6379 20.5095 9.99784 20.5095 9.54161V2.62875C20.5095 1.71435 19.761 0.96582 18.8466 0.96582ZM15.5207 7.61731C14.6023 7.61731 13.8578 6.872 13.8578 5.95438C13.8578 5.03524 14.6023 4.29144 15.5207 4.29144C16.4391 4.29144 17.1839 5.03524 17.1839 5.95438C17.1839 6.872 16.4391 7.61731 15.5207 7.61731Z" fill="#ABABAB"/>
</g>
</g>
<defs>
<clipPath id="clip0_317_695">
<rect width="19.9544" height="19.9544" fill="white" transform="translate(0.555176 0.96582)"/>
</clipPath>
<clipPath id="clip1_317_695">
<rect width="19.9544" height="19.9544" fill="white" transform="translate(0.555176 0.96582)"/>
</clipPath>
</defs>
</svg>
