<svg width="37" height="36" viewBox="0 0 37 36" fill="none" xmlns="http://www.w3.org/2000/svg">
<path d="M18.0317 36C27.9903 36 36.0634 27.9411 36.0634 18C36.0634 8.05887 27.9903 0 18.0317 0C8.07306 0 0 8.05887 0 18C0 27.9411 8.07306 36 18.0317 36Z" fill="#FF0000"/>
<path d="M25.4355 19.5523C25.145 19.5523 24.9082 19.3174 24.9082 19.0259C24.9082 18.7344 25.1435 18.4994 25.4355 18.4994C25.7275 18.4994 25.9629 18.7344 25.9629 19.0259C25.9629 19.3174 25.7275 19.5523 25.4355 19.5523ZM27.837 19.6371C27.4139 16.2941 25.373 16.2301 24.1231 16.7803C23.9577 15.6962 23.262 14.6344 22.6929 14.8233C22.2401 14.9735 21.9168 18.0533 21.8915 20.1353C21.3596 20.9918 20.7444 22.0135 19.9906 23.2255C19.5287 23.969 18.5977 24.2739 17.7858 23.9452C16.7727 23.5363 16.3556 22.3288 16.9009 21.3844L21.7246 13.015C22.6125 11.4743 21.4982 9.55298 19.7179 9.55298H9.23918C8.60307 9.55298 8.43324 10.4274 9.02168 10.6653L11.9222 11.8357C13.2242 12.3621 13.7605 13.9147 13.0603 15.1296L8.53156 22.989C7.64368 24.5297 8.758 26.451 10.5382 26.451H26.5156C26.8374 26.451 27.0444 26.112 26.8984 25.8264C25.8631 23.7891 25.5115 22.5384 25.2791 21.1658C25.9301 21.0454 26.6943 20.8208 27.4362 20.4148C27.7163 20.2617 27.8742 19.9538 27.8355 19.6386" fill="white"/>
</svg>